<?xml version="1.0" encoding="utf-8"?>
<!-- Generator: Adobe Illustrator 24.0.2, SVG Export Plug-In . SVG Version: 6.00 Build 0)  -->
<svg version="1.1" id="Warstwa_1" xmlns="http://www.w3.org/2000/svg" xmlns:xlink="http://www.w3.org/1999/xlink" x="0px" y="0px"
	 viewBox="0 0 430 430" style="enable-background:new 0 0 430 430;" xml:space="preserve">
<style type="text/css">
	.st0{fill:#3A3347;}
	.st1{display:none;}
	.st2{display:inline;fill:none;stroke:#121331;stroke-width:7;stroke-linecap:round;stroke-linejoin:round;}
	.st3{display:none;fill:none;stroke:#121331;stroke-width:7;stroke-linecap:round;stroke-linejoin:round;stroke-miterlimit:10;}
	.st4{fill:#EBE6EF;}
	.st5{opacity:0.5;}
	.st6{fill:#4BB3FD;}
	.st7{fill:#121331;}
	.st8{fill:#181730;}
	.st9{fill:#F9C9C0;}
	.st10{opacity:0.4;}
	.st11{fill:#646e78;}
	.st12{fill:#A3A2A2;}
	.st13{fill:#FFC738;}
	.st14{fill:#2CA58D;}
	.st15{opacity:0.6;}
	.st16{fill:#F28BA8;}
	.st17{fill:#08A88A;}
	.st18{fill:#B26836;}
	.st19{fill:#92140C;}
	.st20{fill:#F24C00;}
	.st21{fill:none;stroke:#F9C9C0;stroke-width:12;stroke-linecap:square;stroke-linejoin:round;}
	.st22{opacity:0.3;}
	.st23{opacity:0.85;}
	.st24{fill:#FFFFFF;}
	.st25{fill:none;stroke:#121331;stroke-width:7;stroke-linecap:round;stroke-linejoin:round;stroke-miterlimit:10;}
	.st26{opacity:0.8;}
</style>
<g>
	<path class="st11" d="M364.23,317.1L221.92,174.79c12.79-31.36,6.47-68.68-18.98-94.13C179.28,57,145.35,49.87,115.51,59.27
		l40.26,40.26l-9.44,47.18l-47.17,9.44L58.9,115.88c-9.41,29.84-2.27,63.78,21.39,87.44c25.13,25.13,61.85,31.62,92.95,19.45
		l141.4,141.4c12.65,12.65,33.28,14.94,47.07,3.55C377.59,354.6,378.43,331.29,364.23,317.1z M346.34,347.54
		c-4.85,4.85-12.72,4.85-17.58,0c-4.86-4.86-4.86-12.73,0-17.58c4.86-4.86,12.73-4.86,17.58,0
		C351.2,334.81,351.2,342.68,346.34,347.54z"/>
</g>
<g class="st5">
	<path class="st11" d="M317.04,317.46L317.04,317.46c-4.11,4.11-10.83,4.11-14.94,0l-92.74-92.74c-4.11-4.11-4.11-10.83,0-14.94l0,0
		c4.11-4.11,10.83-4.11,14.94,0l92.74,92.74C321.15,306.62,321.15,313.35,317.04,317.46z"/>
</g>
<g class="st5">
	<path class="st11" d="M174.62,95.78l-13.23,66.08l-66.07,13.22l-40.14-40.14c0.52-6.44,1.76-12.84,3.72-19.06l40.26,40.27
		l47.17-9.44l9.44-47.18l-40.26-40.26c6.16-1.94,12.5-3.18,18.89-3.71L174.62,95.78z"/>
</g>
<g>
	<path class="st7" d="M340.74,378.56c-10.26,0-20.7-4.04-28.58-11.92l-139.8-139.8c-10.01,3.63-20.4,5.39-30.71,5.4
		c-23.51,0-46.59-9.19-63.84-26.44c-23.89-23.89-32.42-58.74-22.25-90.97c0.37-1.17,1.32-2.06,2.51-2.35
		c1.19-0.29,2.44,0.06,3.31,0.93l38.93,38.94l43.04-8.61l8.61-43.06l-38.93-38.94c-0.87-0.86-1.22-2.12-0.92-3.31
		s1.18-2.14,2.35-2.51c32.23-10.15,67.08-1.62,90.96,22.25c25.2,25.2,33.17,62.55,20.6,95.75L366.7,314.63
		c7.51,7.51,11.54,17.87,11.04,28.41c-0.51,10.72-5.41,20.44-13.8,27.38C357.32,375.88,349.09,378.56,340.74,378.56z M173.24,219.27
		c0.91,0,1.81,0.36,2.48,1.03l141.4,141.4c11.77,11.77,30.38,13.23,42.37,3.33c6.85-5.66,10.86-13.59,11.27-22.31
		c0.41-8.58-2.87-17.01-9-23.13c0,0,0,0,0,0L219.45,177.26c-1-1-1.3-2.49-0.77-3.8c12.69-31.12,5.54-66.58-18.21-90.33
		c-20.63-20.63-50.15-28.84-78.24-22.1l36.02,36.02c0.83,0.83,1.19,2.01,0.96,3.16l-9.44,47.18c-0.28,1.39-1.36,2.47-2.75,2.75
		l-47.17,9.44c-1.15,0.23-2.33-0.13-3.16-0.96L60.67,122.6c-6.75,28.09,1.46,57.61,22.1,78.25c23.39,23.39,58.4,30.72,89.2,18.67
		C172.38,219.35,172.81,219.27,173.24,219.27z M337.55,354.67c-4.08,0-8.16-1.55-11.27-4.65c-3.01-3.01-4.67-7.02-4.67-11.27
		c0-4.26,1.66-8.26,4.67-11.26c3.01-3.01,7.01-4.67,11.27-4.67c0,0,0,0,0.01,0c4.25,0,8.25,1.66,11.26,4.67
		c3.01,3,4.67,7,4.67,11.26c0,4.26-1.66,8.26-4.67,11.27l-2.47-2.47l2.47,2.47C345.71,353.12,341.63,354.67,337.55,354.67z
		 M337.55,329.81c-2.39,0-4.63,0.93-6.32,2.62c-1.69,1.69-2.62,3.93-2.62,6.31c0,2.39,0.93,4.63,2.62,6.32
		c3.48,3.48,9.15,3.48,12.63,0c1.69-1.69,2.62-3.93,2.62-6.32c0-2.38-0.93-4.62-2.62-6.31
		C342.18,330.75,339.94,329.82,337.55,329.81C337.56,329.81,337.55,329.81,337.55,329.81z"/>
</g>
</svg>
